<svg width="50" height="50" viewBox="0 0 50 50" fill="none" xmlns="http://www.w3.org/2000/svg">
<path d="M27.0832 16.6667C28.7408 16.6667 30.3305 17.3251 31.5026 18.4972C32.6747 19.6694 33.3332 21.2591 33.3332 22.9167C33.3332 23.4692 33.5527 23.9991 33.9434 24.3898C34.3341 24.7805 34.864 25 35.4165 25C35.9691 25 36.499 24.7805 36.8897 24.3898C37.2804 23.9991 37.4999 23.4692 37.4999 22.9167C37.4999 20.154 36.4024 17.5045 34.4489 15.551C32.4954 13.5975 29.8459 12.5 27.0832 12.5C26.5307 12.5 26.0008 12.7195 25.6101 13.1102C25.2194 13.5009 24.9999 14.0308 24.9999 14.5833C24.9999 15.1359 25.2194 15.6658 25.6101 16.0565C26.0008 16.4472 26.5307 16.6667 27.0832 16.6667Z" fill="white"/>
<path d="M27.0832 8.33329C30.951 8.33329 34.6603 9.86975 37.3952 12.6047C40.1301 15.3396 41.6665 19.0489 41.6665 22.9166C41.6665 23.4692 41.886 23.9991 42.2767 24.3898C42.6674 24.7805 43.1973 25 43.7499 25C44.3024 25 44.8323 24.7805 45.223 24.3898C45.6137 23.9991 45.8332 23.4692 45.8332 22.9166C45.8332 17.9438 43.8578 13.1747 40.3415 9.65837C36.8252 6.14207 32.056 4.16663 27.0832 4.16663C26.5307 4.16663 26.0008 4.38612 25.6101 4.77682C25.2194 5.16752 24.9999 5.69742 24.9999 6.24996C24.9999 6.80249 25.2194 7.3324 25.6101 7.7231C26.0008 8.1138 26.5307 8.33329 27.0832 8.33329Z" fill="white"/>
<path d="M45.3125 33.1458C45.1979 32.8113 45.0001 32.5116 44.7376 32.2747C44.4752 32.0378 44.1568 31.8715 43.8125 31.7916L31.3125 28.9375C30.9732 28.8605 30.62 28.8698 30.2852 28.9644C29.9504 29.059 29.6446 29.236 29.3958 29.4791C29.1041 29.75 29.0833 29.7708 27.7291 32.3541C23.2358 30.2836 19.6354 26.6684 17.5833 22.1666C20.2291 20.8333 20.25 20.8333 20.5208 20.5208C20.7639 20.272 20.9409 19.9662 21.0355 19.6314C21.1301 19.2966 21.1394 18.9434 21.0625 18.6041L18.2083 6.24996C18.1284 5.90558 17.9622 5.58719 17.7253 5.32477C17.4884 5.06236 17.1886 4.86455 16.8541 4.74996C16.3676 4.57619 15.8652 4.45059 15.3541 4.37496C14.8276 4.25287 14.2902 4.18308 13.75 4.16663C11.2083 4.16663 8.77074 5.1763 6.97352 6.97352C5.1763 8.77074 4.16663 11.2083 4.16663 13.75C4.17765 22.2556 7.56139 30.4097 13.5758 36.4241C19.5902 42.4385 27.7443 45.8223 36.25 45.8333C37.5085 45.8333 38.7546 45.5854 39.9173 45.1038C41.08 44.6222 42.1365 43.9163 43.0264 43.0264C43.9163 42.1365 44.6222 41.08 45.1038 39.9173C45.5854 38.7546 45.8333 37.5085 45.8333 36.25C45.8339 35.7197 45.7921 35.1902 45.7083 34.6666C45.6207 34.1492 45.4883 33.6403 45.3125 33.1458Z" fill="#181A2D"/>
</svg>
