<svg width="7" height="13" viewBox="0 0 7 13" fill="none" xmlns="http://www.w3.org/2000/svg">
<path d="M5.09332 2.02066H6.7017C6.84967 2.02066 6.96976 1.9075 6.96976 1.76806V0.252476C6.96976 0.113042 6.84967 -0.00012207 6.7017 -0.00012207H5.09332C3.46779 -0.00012207 2.14463 1.2462 2.14463 2.77846V4.54664H0.268185C0.120214 4.54664 0.00012207 4.6598 0.00012207 4.79924V6.31483C0.00012207 6.45426 0.120214 6.56742 0.268185 6.56742H2.14463V11.872C2.14463 12.0114 2.26472 12.1246 2.41269 12.1246H4.02107C4.16904 12.1246 4.28913 12.0114 4.28913 11.872V6.56742H6.16557C6.28084 6.56742 6.38324 6.49771 6.42023 6.39465L6.95636 4.87906C6.9837 4.80227 6.96976 4.7174 6.91937 4.65122C6.86843 4.58554 6.78801 4.54664 6.7017 4.54664H4.28913V2.77846C4.28913 2.36066 4.64994 2.02066 5.09332 2.02066Z" fill="white"/>
</svg>
