<svg width="44" height="44" viewBox="0 0 44 44" fill="none" xmlns="http://www.w3.org/2000/svg">
<path d="M21.7266 41.4531C32.6212 41.4531 41.4531 32.6212 41.4531 21.7266C41.4531 10.8319 32.6212 2 21.7266 2C10.8319 2 2 10.8319 2 21.7266C2 32.6212 10.8319 41.4531 21.7266 41.4531Z" stroke="#FF1D29" stroke-width="4"/>
<path d="M29.1484 23.4453C28.5234 23.4453 28.0352 23.7188 27.6836 24.2656C27.3451 24.7995 27.1758 25.5742 27.1758 26.5898C27.1758 27.6055 27.3451 28.3867 27.6836 28.9336C28.0221 29.4674 28.5104 29.7344 29.1484 29.7344C29.7865 29.7344 30.2747 29.4674 30.6133 28.9336C30.9518 28.3867 31.1211 27.6055 31.1211 26.5898C31.1211 25.5742 30.9453 24.7995 30.5937 24.2656C30.2552 23.7188 29.7734 23.4453 29.1484 23.4453ZM29.1484 21.2188C30.7891 21.2188 32.0846 21.694 33.0352 22.6445C33.9857 23.6081 34.4609 24.9232 34.4609 26.5898C34.4609 28.2565 33.9857 29.5781 33.0352 30.5547C32.0846 31.5182 30.7891 32 29.1484 32C27.5078 32 26.2122 31.5182 25.2617 30.5547C24.3112 29.5781 23.8359 28.2565 23.8359 26.5898C23.8359 24.9232 24.3112 23.6146 25.2617 22.6641C26.2122 21.7005 27.5078 21.2188 29.1484 21.2188ZM17 32H14.0605L26.4336 11.457H29.3828L17 32ZM14.2734 11.457C15.9219 11.457 17.2148 11.9388 18.1523 12.9023C19.0898 13.8581 19.5586 15.1719 19.5586 16.8438C19.5586 18.5104 19.0898 19.8255 18.1523 20.7891C17.2148 21.7526 15.9219 22.2344 14.2734 22.2344C12.6289 22.2344 11.3314 21.7526 10.3809 20.7891C9.45378 19.8255 8.99023 18.5104 8.99023 16.8438C8.99023 15.1719 9.45378 13.8581 10.3809 12.9023C11.3314 11.9388 12.6289 11.457 14.2734 11.457ZM14.2734 13.6855C13.6367 13.6855 13.1484 13.9596 12.8086 14.5078C12.4583 15.0547 12.2832 15.8333 12.2832 16.8438C12.2832 17.8594 12.4583 18.6471 12.8086 19.207C13.1484 19.7539 13.6367 20.0273 14.2734 20.0273C14.9089 20.0273 15.3945 19.7539 15.7305 19.207C16.0755 18.6471 16.248 17.8594 16.248 16.8438C16.248 15.8333 16.0755 15.0547 15.7305 14.5078C15.3867 13.9596 14.901 13.6855 14.2734 13.6855Z" fill="#FF1D29"/>
</svg>
