<svg width="45" height="46" viewBox="0 0 45 46" fill="none" xmlns="http://www.w3.org/2000/svg">
<path d="M22.5205 0C19.0226 0.00151879 15.5731 0.817465 12.4452 2.38321C9.31726 3.94896 6.59689 6.2215 4.4995 9.02085C2.40211 11.8202 0.985331 15.0694 0.361362 18.5112C-0.262606 21.953 -0.076618 25.4929 0.904595 28.8503C1.88581 32.2078 3.63529 35.2907 6.01448 37.8548C8.39368 40.419 11.3372 42.3939 14.612 43.6232C17.8867 44.8526 21.4028 45.3026 24.8816 44.9375C28.3604 44.5725 31.7064 43.4024 34.6546 41.5201C35.0153 41.2896 35.2696 40.9253 35.3617 40.5073C35.4537 40.0893 35.376 39.6518 35.1455 39.2912C34.915 38.9305 34.5507 38.6762 34.1327 38.5841C33.7147 38.4921 33.2772 38.5699 32.9166 38.8003C28.8393 41.4051 23.9329 42.3844 19.1681 41.5446C14.4033 40.7049 10.1272 38.1071 7.18613 34.2655C4.24501 30.4238 2.85306 25.6181 3.2857 20.7992C3.71835 15.9804 5.94407 11.4994 9.52246 8.2431C13.1009 4.98676 17.7712 3.19225 22.6094 3.21465C27.4476 3.23705 32.1011 5.07472 35.6492 8.36405C39.1973 11.6534 41.3814 16.1547 41.7694 20.9774C42.1575 25.8 40.7211 30.5927 37.7445 34.4069C37.5736 34.5635 37.4385 34.7552 37.3485 34.9689C37.2585 35.1826 37.2157 35.4131 37.2231 35.6449C37.2305 35.8766 37.2879 36.104 37.3913 36.3114C37.4947 36.5189 37.6417 36.7016 37.8223 36.847C38.0029 36.9924 38.2128 37.0971 38.4375 37.1539C38.6623 37.2106 38.8967 37.2182 39.1247 37.176C39.3526 37.1337 39.5688 37.0428 39.7583 36.9093C39.9478 36.7758 40.1063 36.6029 40.2228 36.4025C42.8198 33.0791 44.4317 29.0934 44.8751 24.8991C45.3186 20.7047 44.5758 16.4701 42.7313 12.6771C40.8867 8.88412 38.0146 5.68503 34.4416 3.44387C30.8685 1.20272 26.7382 0.00950345 22.5205 0Z" fill="#FF1D29"/>
<path d="M11.7218 36.5313C11.8439 36.6551 11.9852 36.7584 12.1403 36.837C15.1511 39.0441 18.7871 40.234 22.5203 40.234C26.2534 40.234 29.8894 39.0441 32.9003 36.837C33.0554 36.7584 33.1967 36.6551 33.3187 36.5313C35.396 34.936 37.0935 32.8997 38.2886 30.5691C39.4838 28.2386 40.1469 25.6718 40.2302 23.054C40.3135 20.4362 39.8148 17.8325 38.7702 15.4307C37.7256 13.0288 36.161 10.8888 34.1893 9.16473C32.2175 7.44069 29.8878 6.17566 27.3681 5.46084C24.8484 4.74603 22.2014 4.59925 19.6181 5.03109C17.0348 5.46293 14.5795 6.46263 12.4293 7.9581C10.279 9.45357 8.4874 11.4075 7.18361 13.6791C7.0772 13.8628 7.00818 14.0657 6.98053 14.2762C6.95288 14.4866 6.96714 14.7005 7.02248 14.9054C7.07783 15.1104 7.17317 15.3023 7.30301 15.4702C7.43286 15.6382 7.59464 15.7787 7.77905 15.8839C8.14857 16.0937 8.58608 16.1488 8.99611 16.0373C9.40614 15.9257 9.75541 15.6565 9.9677 15.2884C11.4231 12.7669 13.6046 10.7424 16.2278 9.47924C18.8509 8.21603 21.7938 7.77269 24.6727 8.20704C27.5516 8.64139 30.2327 9.93326 32.3664 11.9141C34.5001 13.895 35.9872 16.473 36.6339 19.3117H6.42723C6.29568 19.3226 6.16596 19.3496 6.041 19.3922C5.69739 19.477 5.39133 19.6728 5.17023 19.9492C4.94912 20.2256 4.8253 20.5671 4.81793 20.921C4.81036 21.0282 4.81036 21.1357 4.81793 21.2429V22.5303C4.82197 25.2365 5.4464 27.9057 6.64324 30.3329C7.84008 32.76 9.57745 34.8805 11.7218 36.5313ZM9.03431 27.7605C9.33682 27.5745 9.6732 27.4503 10.024 27.3951C10.3748 27.3398 10.7331 27.3546 11.0781 27.4387C11.5028 27.5524 11.8986 27.7546 12.2397 28.0319C12.5808 28.3093 12.8595 28.6555 13.0576 29.048C13.4092 29.697 13.5771 30.4296 13.543 31.1669C13.509 31.9043 13.2744 32.6183 12.8645 33.2322C11.1789 31.7316 9.86732 29.8579 9.03431 27.7605ZM19.7201 36.7405C20.0581 36.3236 20.4848 35.9874 20.9693 35.7565C21.4537 35.5257 21.9836 35.4058 22.5203 35.4058C23.0569 35.4058 23.5868 35.5257 24.0713 35.7565C24.5557 35.9874 24.9825 36.3236 25.3205 36.7405C23.4715 37.1048 21.5691 37.1048 19.7201 36.7405ZM32.1761 33.2322C31.7506 32.6096 31.5071 31.8807 31.473 31.1273C31.4389 30.374 31.6155 29.626 31.983 28.9675C32.181 28.575 32.4597 28.2288 32.8008 27.9515C33.142 27.6741 33.5378 27.472 33.9624 27.3582C34.3075 27.2742 34.6658 27.2593 35.0166 27.3146C35.3674 27.3698 35.7037 27.4941 36.0063 27.6801C35.1843 29.8064 33.872 31.7087 32.1761 33.2322ZM36.7787 24.5902C35.617 24.1062 34.3301 24.0102 33.1095 24.3166C32.2534 24.5471 31.4541 24.952 30.7618 25.5059C30.0695 26.0597 29.4991 26.7506 29.0862 27.5352C28.4533 28.7278 28.1648 30.0729 28.2529 31.4201C28.341 32.7673 28.8023 34.0634 29.5851 35.1633C29.1989 35.3779 28.8127 35.571 28.4264 35.7427C27.8363 34.6762 26.9714 33.7872 25.9214 33.1682C24.8714 32.5491 23.6748 32.2226 22.4559 32.2226C21.237 32.2226 20.0404 32.5491 18.9904 33.1682C17.9405 33.7872 17.0755 34.6762 16.4854 35.7427C16.0992 35.5603 15.7129 35.3672 15.3267 35.1633C16.1096 34.0634 16.5709 32.7673 16.659 31.4201C16.7471 30.0729 16.4585 28.7278 15.8256 27.5352C15.4128 26.7506 14.8423 26.0597 14.15 25.5059C13.4577 24.952 12.6584 24.5471 11.8023 24.3166C10.5817 24.0102 9.29477 24.1062 8.1331 24.5902C8.05244 23.9067 8.02017 23.2184 8.03654 22.5303H37.004C36.9991 23.2199 36.9453 23.9082 36.8431 24.5902H36.7787Z" fill="#FF1D29"/>
<path d="M22.5208 28.9675C22.9476 28.9675 23.357 28.798 23.6588 28.4962C23.9606 28.1944 24.1301 27.785 24.1301 27.3582C24.1301 26.9314 23.9606 26.5221 23.6588 26.2203C23.357 25.9185 22.9476 25.7489 22.5208 25.7489C22.094 25.7489 21.6847 25.9185 21.3829 26.2203C21.0811 26.5221 20.9115 26.9314 20.9115 27.3582C20.9115 27.785 21.0811 28.1944 21.3829 28.4962C21.6847 28.798 22.094 28.9675 22.5208 28.9675Z" fill="#FF1D29"/>
</svg>
