<svg width="47" height="47" viewBox="0 0 47 47" fill="none" xmlns="http://www.w3.org/2000/svg">
<path d="M23.5 46.4166C10.8432 46.4166 0.583374 36.1569 0.583374 23.5C0.583374 10.8431 10.8432 0.583313 23.5 0.583313C36.1569 0.583313 46.4167 10.8431 46.4167 23.5C46.4167 36.1569 36.1569 46.4166 23.5 46.4166ZM23.5 41.8333C28.3623 41.8333 33.0255 39.9018 36.4637 36.4636C39.9018 33.0254 41.8334 28.3623 41.8334 23.5C41.8334 18.6377 39.9018 13.9745 36.4637 10.5364C33.0255 7.09819 28.3623 5.16665 23.5 5.16665C18.6377 5.16665 13.9746 7.09819 10.5364 10.5364C7.09825 13.9745 5.16671 18.6377 5.16671 23.5C5.16671 28.3623 7.09825 33.0254 10.5364 36.4636C13.9746 39.9018 18.6377 41.8333 23.5 41.8333ZM15.4792 28.0833H28.0834C28.3873 28.0833 28.6787 27.9626 28.8936 27.7477C29.1085 27.5328 29.2292 27.2414 29.2292 26.9375C29.2292 26.6336 29.1085 26.3421 28.8936 26.1273C28.6787 25.9124 28.3873 25.7916 28.0834 25.7916H18.9167C17.3972 25.7916 15.94 25.188 14.8656 24.1136C13.7911 23.0392 13.1875 21.5819 13.1875 20.0625C13.1875 18.543 13.7911 17.0858 14.8656 16.0113C15.94 14.9369 17.3972 14.3333 18.9167 14.3333H21.2084V9.74998H25.7917V14.3333H31.5209V18.9166H18.9167C18.6128 18.9166 18.3214 19.0374 18.1065 19.2523C17.8916 19.4671 17.7709 19.7586 17.7709 20.0625C17.7709 20.3664 17.8916 20.6578 18.1065 20.8727C18.3214 21.0876 18.6128 21.2083 18.9167 21.2083H28.0834C29.6028 21.2083 31.0601 21.8119 32.1345 22.8863C33.2089 23.9608 33.8125 25.418 33.8125 26.9375C33.8125 28.4569 33.2089 29.9142 32.1345 30.9886C31.0601 32.063 29.6028 32.6666 28.0834 32.6666H25.7917V37.25H21.2084V32.6666H15.4792V28.0833Z" fill="#FF1D29"/>
</svg>
