<svg width="24" height="24" viewBox="0 0 24 24" fill="none" xmlns="http://www.w3.org/2000/svg">
<path d="M14.6719 1.48704C14.7224 1.29855 14.8456 1.13782 15.0146 1.04013C15.1835 0.942436 15.3843 0.915778 15.5728 0.966005C17.3612 1.44689 18.9918 2.38927 20.3012 3.69875C21.6107 5.00822 22.5531 6.63881 23.034 8.42716C23.0589 8.52053 23.0652 8.6179 23.0526 8.71371C23.0399 8.80952 23.0084 8.9019 22.9601 8.98556C22.9117 9.06922 22.8473 9.14254 22.7706 9.20132C22.6939 9.2601 22.6063 9.30319 22.5129 9.32814C22.4196 9.35309 22.3222 9.3594 22.2264 9.34671C22.1306 9.33403 22.0382 9.3026 21.9545 9.25422C21.8709 9.20584 21.7976 9.14145 21.7388 9.06473C21.68 8.98801 21.6369 8.90047 21.612 8.8071C21.1982 7.26853 20.3875 5.86568 19.2609 4.7391C18.1343 3.61252 16.7315 2.80175 15.1929 2.38802C15.0043 2.33763 14.8435 2.2144 14.7458 2.04543C14.6481 1.87647 14.6215 1.67561 14.6719 1.48704ZM14.1768 6.1801C15.05 6.41486 15.8462 6.87499 16.4856 7.51438C17.125 8.15376 17.5851 8.94996 17.8199 9.82318C17.8703 10.0117 17.9936 10.1724 18.1625 10.2701C18.3315 10.3677 18.5323 10.3943 18.7208 10.3439C18.9093 10.2936 19.0701 10.1704 19.1678 10.0015C19.2656 9.83258 19.2922 9.63178 19.2419 9.44324C18.9399 8.32026 18.3482 7.29634 17.5259 6.47407C16.7036 5.65179 15.6797 5.06004 14.5567 4.75808C14.3682 4.7077 14.1673 4.73429 13.9983 4.832C13.8294 4.92972 13.7062 5.09055 13.6558 5.27912C13.6054 5.46769 13.632 5.66856 13.7297 5.83752C13.8274 6.00649 13.9882 6.12972 14.1768 6.1801ZM23.9877 18.2143C23.7821 19.8123 23.0019 21.2808 21.7927 22.3455C20.5834 23.4103 19.028 23.9984 17.4168 24C7.81319 24 0 16.1868 0 6.58316C0.00163094 4.972 0.589736 3.41654 1.65446 2.20733C2.71918 0.998116 4.1877 0.217863 5.78569 0.012318C6.15459 -0.032059 6.52795 0.044173 6.84993 0.229614C7.17191 0.415056 7.42521 0.699742 7.57195 1.0411L10.0362 6.79085C10.148 7.05107 10.1937 7.33496 10.169 7.61713C10.1442 7.89929 10.05 8.17094 9.89459 8.40775L7.85415 11.5255C7.83109 11.559 7.81708 11.5979 7.81349 11.6385C7.8099 11.679 7.81685 11.7198 7.83367 11.7569C8.78048 13.6884 10.3465 15.2474 12.2823 16.1855C12.3196 16.2022 12.3605 16.2089 12.4012 16.205C12.4419 16.2011 12.4808 16.1867 12.5143 16.1632L15.5849 14.1156C15.8224 13.9566 16.0959 13.8597 16.3805 13.8335C16.665 13.8074 16.9516 13.8529 17.214 13.966L22.9588 16.428C23.3002 16.5747 23.5849 16.828 23.7704 17.15C23.9558 17.472 24.0321 17.8454 23.9877 18.2143ZM22.5273 18.0298C22.5328 17.9779 22.5213 17.9255 22.4945 17.8806C22.4678 17.8358 22.4272 17.8007 22.3789 17.7808L16.6343 15.3188C16.5968 15.3027 16.5558 15.2963 16.5152 15.3C16.4745 15.3038 16.4354 15.3176 16.4015 15.3402L13.3309 17.3878C13.0843 17.5529 12.7989 17.651 12.5029 17.6726C12.2069 17.6942 11.9104 17.6385 11.6424 17.511C9.40962 16.4289 7.60322 14.6307 6.51107 12.4029C6.383 12.1365 6.32597 11.8415 6.34551 11.5465C6.36505 11.2516 6.4605 10.9667 6.62259 10.7195L8.66302 7.60164C8.68524 7.56778 8.69872 7.52894 8.70225 7.4886C8.70578 7.44826 8.69926 7.40767 8.68326 7.37047L6.21917 1.62095C6.20087 1.57716 6.17022 1.53965 6.13095 1.513C6.09169 1.48634 6.04551 1.47171 5.99805 1.47087C5.98872 1.47088 5.9794 1.47148 5.97015 1.47267C4.72751 1.6327 3.58562 2.23964 2.75781 3.18011C1.93 4.12058 1.47288 5.33026 1.47184 6.58316C1.47661 10.8106 3.15805 14.8635 6.14728 17.8527C9.13652 20.8419 13.1894 22.5234 17.4168 22.5281C18.6697 22.5271 19.8794 22.07 20.8199 21.2422C21.7603 20.4144 22.3673 19.2725 22.5273 18.0298Z" fill="white"/>
</svg>
