<svg width="12" height="13" viewBox="0 0 12 13" fill="none" xmlns="http://www.w3.org/2000/svg">
<path d="M10.6468 1.23226C10.3329 0.943116 9.06263 0.0213101 6.23048 0.00895341C6.23048 0.00895341 2.89171 -0.191224 1.26558 1.30146C0.361071 2.20597 0.0422692 3.53307 0.00767057 5.17651C-0.0269281 6.81994 -0.0689407 9.89922 2.89913 10.7345H2.9016L2.89913 12.0097C2.89913 12.0097 2.87936 12.5262 3.2204 12.63C3.63064 12.7585 3.87283 12.3656 4.26577 11.943C4.48078 11.7107 4.77734 11.3697 5.00223 11.1102C7.03366 11.2807 8.59307 10.8902 8.77101 10.8334C9.18125 10.6999 11.5018 10.4034 11.8775 7.32409C12.2679 4.14596 11.6897 2.13924 10.6468 1.23226ZM10.9903 7.09179C10.6715 9.66197 8.79078 9.82508 8.44479 9.93629C8.29651 9.98324 6.92493 10.3243 5.20241 10.2131C5.20241 10.2131 3.91732 11.7626 3.51696 12.1654C3.38598 12.2964 3.24264 12.2841 3.24511 12.0246C3.24511 11.854 3.255 9.90663 3.255 9.90663C3.25253 9.90663 3.25253 9.90663 3.255 9.90663C0.739184 9.20972 0.887464 6.58764 0.914649 5.21605C0.941834 3.84446 1.20132 2.72 1.96744 1.96378C3.34397 0.715754 6.17858 0.901104 6.17858 0.901104C8.5733 0.910989 9.72 1.63262 9.9869 1.87481C10.8692 2.63104 11.319 4.44005 10.9903 7.09179ZM7.55512 5.09495C7.565 5.30749 7.2462 5.32231 7.23631 5.10978C7.20913 4.56609 6.95458 4.30165 6.43066 4.272C6.21813 4.25964 6.2379 3.94084 6.44796 3.9532C7.13746 3.99027 7.52052 4.38568 7.55512 5.09495ZM8.0568 5.37421C8.08151 4.32637 7.42661 3.50589 6.18353 3.41445C5.97346 3.39962 5.99571 3.08082 6.20577 3.09565C7.63914 3.19944 8.40278 4.1855 8.3756 5.38163C8.37313 5.59416 8.05185 5.58428 8.0568 5.37421ZM9.21832 5.70537C9.22079 5.91791 8.89952 5.92038 8.89952 5.70784C8.88469 3.69371 7.54276 2.59644 5.91415 2.58408C5.70409 2.58161 5.70409 2.26528 5.91415 2.26528C7.73552 2.27763 9.20102 3.53554 9.21832 5.70537ZM8.93906 8.12975V8.13469C8.67216 8.60424 8.17295 9.12322 7.65891 8.95764L7.65397 8.95023C7.13252 8.80442 5.90427 8.17176 5.12827 7.55393C4.72791 7.2376 4.36216 6.86442 4.08042 6.50608C3.82588 6.18728 3.56886 5.80917 3.31925 5.35444C2.79286 4.40298 2.67671 3.97791 2.67671 3.97791C2.51113 3.46387 3.02764 2.96466 3.49966 2.69776H3.5046C3.73197 2.57914 3.94944 2.61868 4.09525 2.79414C4.09525 2.79414 4.4017 3.1599 4.53268 3.34031C4.65624 3.50836 4.82182 3.77773 4.90832 3.92848C5.05907 4.19786 4.96516 4.47218 4.81688 4.58586L4.52032 4.82311C4.36957 4.9442 4.38934 5.16909 4.38934 5.16909C4.38934 5.16909 4.82924 6.8323 6.47267 7.25242C6.47267 7.25242 6.69756 7.27219 6.81866 7.12144L7.05591 6.82488C7.16959 6.6766 7.44391 6.58269 7.71328 6.73344C8.07657 6.93856 8.53871 7.25737 8.84515 7.54651C9.01814 7.68738 9.05768 7.90238 8.93906 8.12975Z" fill="white"/>
</svg>
